<svg width="25" height="25" viewBox="0 0 25 25" fill="none" xmlns="http://www.w3.org/2000/svg">
<g id="Logo Telegram" clip-path="url(#clip0_19_535)">
<g id="Artboard">
<path id="Oval" d="M13 25C19.6274 25 25 19.6274 25 13C25 6.37258 19.6274 1 13 1C6.37258 1 1 6.37258 1 13C1 19.6274 6.37258 25 13 25Z" fill="black"/>
<path id="Path-3" fill-rule="evenodd" clip-rule="evenodd" d="M6.43189 12.8735C9.93014 11.3493 12.2628 10.3445 13.43 9.85905C16.7626 8.47294 17.455 8.23216 17.9064 8.22421C18.0056 8.22246 18.2276 8.24706 18.3714 8.36372C18.4928 8.46223 18.5262 8.5953 18.5422 8.6887C18.5581 8.78209 18.578 8.99485 18.5622 9.1611C18.3816 11.0586 17.6002 15.6633 17.2027 17.7885C17.0345 18.6877 16.7032 18.9893 16.3826 19.0188C15.6857 19.0829 15.1566 18.5582 14.4816 18.1158C13.4255 17.4235 12.8288 16.9925 11.8036 16.3169C10.6188 15.5362 11.3869 15.1071 12.0621 14.4058C12.2388 14.2222 15.3092 11.4295 15.3686 11.1761C15.376 11.1444 15.3829 11.0263 15.3128 10.964C15.2426 10.9016 15.139 10.9229 15.0643 10.9399C14.9584 10.9639 13.2712 12.0791 10.0026 14.2855C9.52373 14.6143 9.08994 14.7746 8.70129 14.7662C8.27283 14.7569 7.44864 14.5239 6.83594 14.3247C6.08444 14.0805 5.48716 13.9513 5.53917 13.5364C5.56626 13.3203 5.86383 13.0993 6.43189 12.8735Z" fill="white"/>
</g>
</g>
<defs>
<clipPath id="clip0_19_535">
<rect width="24" height="24" fill="white" transform="translate(0.980042 0.600098)"/>
</clipPath>
</defs>
</svg>
